<?xml version="1.0" encoding="UTF-8"?>
<!DOCTYPE svg PUBLIC "-//W3C//DTD SVG 1.1//EN" "http://www.w3.org/Graphics/SVG/1.1/DTD/svg11.dtd">
<!-- Creator: CorelDRAW -->
<svg xmlns="http://www.w3.org/2000/svg" xml:space="preserve" width="1.00838in" height="0.364976in" version="1.1" style="shape-rendering:geometricPrecision; text-rendering:geometricPrecision; image-rendering:optimizeQuality; fill-rule:evenodd; clip-rule:evenodd"
viewBox="0 0 316.56 114.58"
 xmlns:xlink="http://www.w3.org/1999/xlink"
 xmlns:xodm="http://www.corel.com/coreldraw/odm/2003">
 <defs>
  <style type="text/css">
   <![CDATA[
    .fil0 {fill:#730C99}
    .fil1 {fill:black;fill-rule:nonzero}
   ]]>
  </style>
 </defs>
 <g id="Layer_x0020_1">
  <metadata id="CorelCorpID_0Corel-Layer"/>
  <g id="_2460517696352">
   <path class="fil0" d="M57.29 0l0.1 0 -0.42 0c0.11,-0 0.21,-0 0.32,-0zm-4.91 36.81c-2.52,-0.14 -4.83,-0.35 -7,-0.55 -7.4,-0.66 -12.97,-1.16 -21.49,1.61 -1.88,0.4 -2.3,-1.45 -0.7,-2.16 8.95,-2.91 14.72,-2.39 22.38,-1.71 2.02,0.18 4.17,0.37 6.62,0.52l-0.2 -2.52 0.06 -0.46c0.46,-1.32 1.32,-2.46 2.44,-3.26 1.09,-0.78 2.42,-1.24 3.85,-1.24 1.43,0 2.75,0.46 3.84,1.23 1.11,0.79 1.98,1.92 2.44,3.23l0.06 0.47 -0.26 3.12c1.03,0.11 2.04,0.22 3.01,0.31 2.53,0.25 4.99,0.46 7.5,0.62 3.63,0.23 6.67,0.38 9.67,0.24 2.98,-0.14 5.97,-0.56 9.53,-1.48 1.47,-0.21 1.76,1.64 0.57,2.19 -3.73,0.97 -6.86,1.41 -10,1.55 -3.12,0.14 -6.22,-0.01 -9.91,-0.24 -2.49,-0.15 -4.99,-0.37 -7.58,-0.63 -0.99,-0.1 -1.98,-0.2 -2.98,-0.31l-4.97 59.3c-0.17,1.28 -1.73,1.56 -2.09,0l-4.79 -59.85zm7.53 -2.22c0.77,0.09 1.53,0.18 2.26,0.26l0.23 -2.81c-0.32,-0.77 -0.85,-1.44 -1.53,-1.92 -0.71,-0.51 -1.58,-0.8 -2.53,-0.8 -0.95,0 -1.82,0.3 -2.54,0.82 -0.68,0.48 -1.21,1.16 -1.53,1.94l3.97 49.54 3.73 -44.51c-0.69,-0.08 -1.38,-0.16 -2.08,-0.24 -0.05,0.81 -0.73,1.47 -1.56,1.47l0 0c-0.86,0 -1.56,-0.7 -1.56,-1.56l0 -2.54c0,-0.86 0.7,-1.56 1.56,-1.56l0 0c0.86,0 1.56,0.7 1.56,1.56l0 0.35zm12.36 -32.61c24.38,6.58 42.32,28.85 42.32,55.31 0,9.3 -2.22,18.08 -6.15,25.84 -2.44,4.17 -5.4,8 -8.8,11.39 -10.18,10.18 -24.25,16.48 -39.79,16.48 -15.54,0 -29.6,-6.3 -39.79,-16.48 -1.82,-1.82 -3.51,-3.76 -5.07,-5.81 1.26,1.58 2.61,3.08 4.04,4.51 9.88,9.88 23.53,16 38.61,16 15.08,0 28.73,-6.11 38.61,-16 9.88,-9.88 16,-23.53 16,-38.61 0,-15.08 -6.11,-28.73 -16,-38.61 -6.56,-6.56 -14.79,-11.46 -23.99,-14.01zm13.85 104.82c-8.47,4.94 -18.32,7.77 -28.83,7.77 -31.64,0 -57.29,-25.65 -57.29,-57.29 0,-10.51 2.83,-20.36 7.77,-28.82 -3.99,7.9 -6.24,16.82 -6.24,26.27 0,16.1 6.53,30.68 17.08,41.23 10.55,10.55 25.13,17.08 41.23,17.08 9.45,0 18.38,-2.25 26.27,-6.24zm-54.67 -100.65c7.66,-3.88 16.3,-6.08 25.45,-6.14 -14.68,0.2 -27.97,6.18 -37.67,15.79 0.27,-0.28 0.55,-0.56 0.82,-0.84 3.4,-3.4 7.22,-6.36 11.39,-8.8zm63.36 11.29c-9.51,-9.51 -22.65,-15.4 -37.17,-15.4 -14.52,0 -27.66,5.88 -37.17,15.4 -9.51,9.51 -15.4,22.65 -15.4,37.17 0,14.52 5.88,27.66 15.4,37.17 9.51,9.51 22.65,15.4 37.17,15.4 14.52,0 27.66,-5.88 37.17,-15.4 9.51,-9.51 15.4,-22.65 15.4,-37.17 0,-14.52 -5.88,-27.66 -15.4,-37.17z"/>
   <path class="fil1" d="M150.33 80.17l0 -34.96c0,-0.22 0,-0.59 0,-1.12 0,-0.54 0,-0.95 0,-1.23 0,-2.68 -0.92,-4 -2.77,-3.96 -2.48,0 -4.03,0.05 -4.68,0.16 -2.02,0.25 -3.52,0.88 -4.51,1.87 -0.89,0.78 -1.87,1.77 -2.93,2.94l0 -5.3c0,-0.68 0.45,-1.05 1.34,-1.12 2.5,-0.07 13.17,-0.07 32.01,0 1.5,0 2.3,0.54 2.41,1.64l0 4.51c-1.43,-1.99 -2.91,-3.34 -4.44,-4.06 -1.14,-0.47 -3.57,-0.69 -7.28,-0.65 -1.43,0.03 -2.34,0.52 -2.73,1.44 -0.21,0.54 -0.32,1.69 -0.32,3.43l0 34.25c0,1.33 -0.59,2.04 -1.77,2.15l-4.34 0zm36.83 -25.4c-0.25,-2.16 -0.95,-3.99 -2.09,-5.49 -1.25,-1.68 -2.89,-2.73 -4.93,-3.16 -0.75,-0.18 -1.61,-0.29 -2.57,-0.32 -2.75,-0.11 -5.34,0.57 -7.76,2.03 -0.86,0.5 -1.66,1.02 -2.41,1.55 -1.46,1.07 -2.66,2.14 -3.59,3.21 -0.5,0.61 -0.75,1 -0.75,1.18 0,0.11 0.04,0.2 0.11,0.27 0.29,0.18 1.06,-0.18 2.32,-1.07 1.14,-0.82 2.28,-1.64 3.39,-2.46 1.44,-1.03 2.63,-1.71 3.61,-2.03 0.76,-0.25 1.54,-0.37 2.37,-0.37 0.96,0 1.95,0.16 2.96,0.48 2.51,0.78 3.76,3.94 3.76,9.48 0,0.68 -0.02,1.42 -0.05,2.22 -0.04,0.8 -0.05,1.22 -0.05,1.26 0,0.22 -0.09,0.32 -0.27,0.32 -0.32,0 -0.83,-0.3 -1.51,-0.91 -1.15,-1.04 -2.61,-1.86 -4.36,-2.46 -1.18,-0.43 -2.4,-0.64 -3.66,-0.64 -1.76,0 -3.32,0.39 -4.68,1.18 -3.73,2.14 -5.6,5.69 -5.6,10.65 0,2.14 0.39,4.16 1.18,6.05 0.54,1.29 1.28,2.3 2.25,3.05 1.18,0.93 2.68,1.39 4.5,1.39 1.32,0 2.62,-0.23 3.91,-0.7 1.14,-0.39 2.18,-0.93 3.1,-1.61 1.82,-1.32 3.57,-3.27 5.25,-5.84l0 6.26c0.11,1.25 0.79,1.87 2.04,1.87l2.3 0 1.61 0 0 -16.22c0,-3.96 -0.12,-7.02 -0.38,-9.18zm-6.84 16.3c-2.35,3.93 -4.98,5.71 -7.9,5.35 -2.95,-0.36 -4.59,-2.59 -4.91,-6.69 -0.18,-2.32 0.09,-4.39 0.8,-6.21 0.29,-0.78 0.83,-1.56 1.65,-2.33 0.82,-0.77 1.62,-1.21 2.4,-1.31 1.31,-0.18 2.72,0.18 4.21,1.07 0.89,0.5 1.84,1.3 2.85,2.41 1.02,1.11 1.68,2.12 2,3.05 0.11,0.32 0.16,0.66 0.16,1.02 0,1 -0.43,2.21 -1.28,3.64zm16.21 -31.8c0,0.86 -0.3,1.58 -0.92,2.17 -0.61,0.59 -1.35,0.88 -2.21,0.88 -0.87,0 -1.6,-0.29 -2.19,-0.88 -0.6,-0.59 -0.89,-1.31 -0.89,-2.17 0,-0.86 0.29,-1.59 0.89,-2.2 0.59,-0.61 1.32,-0.91 2.19,-0.91 0.87,0 1.61,0.3 2.21,0.91 0.62,0.61 0.92,1.34 0.92,2.2zm0 6.69l0 32.66c0.18,0.93 -0.43,1.43 -1.82,1.5l-4.39 0 0 -32.12c-0.14,-1.28 0.57,-1.96 2.14,-2.03l4.07 0zm9.16 -11.94l0 44.01c0,1.32 -0.88,2.03 -2.62,2.14l-3.69 0 0 -44.17c0,-1.25 0.59,-1.91 1.77,-1.98l4.55 0zm16.92 11.83c-4.21,0 -7.69,2.02 -10.44,6.05 -2.43,3.57 -3.64,7.57 -3.64,11.99 0,4.14 1.11,7.83 3.32,11.08 2.46,3.64 5.69,5.46 9.69,5.46 4.25,0 7.75,-2.02 10.49,-6.05 2.43,-3.57 3.64,-7.57 3.64,-11.99 0,-4.14 -1.11,-7.83 -3.32,-11.08 -2.5,-3.64 -5.75,-5.46 -9.74,-5.46zm6.85 17.24c-0.11,4.42 -0.94,8.16 -2.49,11.21 -1.55,3.05 -3.36,4.56 -5.43,4.52 -2.07,-0.07 -3.8,-1.68 -5.19,-4.82 -1.39,-3.14 -2.03,-6.91 -1.93,-11.3 0.11,-4.39 0.94,-8.12 2.49,-11.19 1.55,-3.07 3.36,-4.59 5.43,-4.55 2.07,0.07 3.8,1.68 5.19,4.82 1.39,3.14 2.03,6.91 1.93,11.3zm28.59 -17.08c-2.68,0 -5.07,1.37 -7.17,4.12 -1.46,1.89 -3.02,4.66 -4.66,8.3 -0.86,1.89 -1.36,2.8 -1.5,2.73 -0.11,-0.07 -0.16,-0.64 -0.16,-1.72l0 -11.33c0.14,-1.29 -0.55,-1.99 -2.09,-2.1l-4.18 0 0 0.11 0 34.1 5.3 0c0.71,-0.29 1.11,-0.82 1.18,-1.61l0 -12.63c0,-0.93 0.46,-2.27 1.39,-4.02 0.71,-1.43 1.89,-3.53 3.53,-6.32 1.36,-2 2.91,-3.87 4.66,-5.62 0.86,-0.82 1.75,-1.23 2.68,-1.23 1.07,0 2.07,0.55 3,1.66 0.75,0.89 1.32,1.95 1.71,3.16l0 -5.25c0,-1.57 -1.23,-2.36 -3.69,-2.36zm12.8 -8.99l4 0c1.37,0 2.11,0.57 2.21,1.72l0 8.01c7.49,0.5 11.77,0.89 12.85,1.19 0.29,0.14 0.43,0.27 0.43,0.37 0,0.21 -0.45,0.32 -1.33,0.32l-10.35 0c-0.99,-0.14 -1.53,0.25 -1.6,1.18l0 20.02c0,2.29 0.09,3.85 0.27,4.71 0.39,1.82 1.26,3 2.61,3.53 0.74,0.32 1.49,0.48 2.24,0.48 0.81,0 1.92,-0.25 3.3,-0.76 0.29,-0.11 1.14,-0.58 2.56,-1.42 1.31,-0.79 2.01,-1.2 2.08,-1.2 0.18,0 0.27,0.07 0.27,0.21 0,0.22 -0.14,0.45 -0.43,0.71 -0.86,0.9 -2.2,1.78 -4.02,2.65 -2.29,1.15 -4.44,1.73 -6.44,1.73 -1.97,0 -3.67,-0.66 -5.1,-1.98 -2.51,-2.33 -3.69,-5.17 -3.54,-8.53 0,0 0,-0.84 0,-2.52l0 -17.01c0.18,-1.14 -0.25,-1.75 -1.28,-1.82l-5.04 0c-0.04,-1.61 0.41,-2.46 1.34,-2.57l4.98 0 0 -9.05zm40.69 40.53c-2,1.14 -3.73,1.71 -5.19,1.71 -0.43,0.04 -0.84,0.05 -1.23,0.05 -3.57,0 -6.07,-1.59 -7.49,-4.76 -0.57,-1.32 -0.91,-2.89 -1.02,-4.71l0 -4.76 17.66 0c1.44,-0.14 2.2,-0.96 2.31,-2.46 0,-1.93 -0.48,-4.25 -1.45,-6.96 -0.71,-2.03 -1.68,-3.81 -2.89,-5.33 -1.21,-1.52 -2.5,-2.65 -3.85,-3.4 -1.21,-0.68 -2.52,-1.02 -3.91,-1.02 -3.39,0 -6.37,1.62 -8.94,4.87 -3.36,4.25 -5.03,9.07 -5.03,14.46 0,3.93 1.03,7.3 3.1,10.12 1.78,2.5 4.25,4.07 7.39,4.71 1.54,0.32 2.89,0.48 4.07,0.48 3,0 5.83,-0.88 8.51,-2.62 1.61,-1.07 2.41,-1.89 2.41,-2.46 0,-0.25 -0.12,-0.38 -0.37,-0.38 -0.25,0 -0.78,0.29 -1.61,0.86 -1.25,0.86 -2.07,1.39 -2.46,1.61zm-11.4 -28.59c1.18,-0.89 2.43,-1.34 3.75,-1.34 2.25,0 3.93,1.12 5.03,3.37 1.03,2.11 1.64,4.96 1.82,8.57 0.04,1.25 0.02,2.12 -0.05,2.62 -0.04,0.25 -0.11,0.46 -0.21,0.64 -0.29,0.46 -0.71,0.77 -1.29,0.91l-12.58 0c0.07,-4.93 0.12,-7.57 0.16,-7.92 0.39,-3.14 1.52,-5.42 3.37,-6.85z"/>
  </g>
 </g>
</svg>
